<mxfile host="app.diagrams.net" modified="2020-12-04T17:18:34.314Z" agent="5.0 (Windows NT 10.0; Win64; x64) AppleWebKit/537.36 (KHTML, like Gecko) Chrome/87.0.4280.88 Safari/537.36" etag="XVYbg4DKOPVXqdVx2fup" version="13.10.8" type="github">
  <diagram id="C5RBs43oDa-KdzZeNtuy" name="Page-1">
    <mxGraphModel dx="831" dy="565" grid="1" gridSize="10" guides="1" tooltips="1" connect="1" arrows="1" fold="1" page="1" pageScale="1" pageWidth="827" pageHeight="1169" math="0" shadow="0">
      <root>
        <mxCell id="WIyWlLk6GJQsqaUBKTNV-0" />
        <mxCell id="WIyWlLk6GJQsqaUBKTNV-1" parent="WIyWlLk6GJQsqaUBKTNV-0" />
        <mxCell id="a0qcRUhDXjjUuK-SwN_m-12" value="Restart R&#39;s Transaction" style="rounded=1;whiteSpace=wrap;html=1;fontSize=12;glass=0;strokeWidth=1;shadow=0;container=0;dashed=1;verticalAlign=bottom;" vertex="1" parent="WIyWlLk6GJQsqaUBKTNV-1">
          <mxGeometry x="500" y="526" width="120" height="116.5" as="geometry" />
        </mxCell>
        <mxCell id="MxyfuENbYduMKJOF5cX6-17" value="Process Read or Write Operation" style="rounded=1;whiteSpace=wrap;html=1;fontSize=24;glass=0;strokeWidth=1;shadow=0;fontStyle=1" parent="WIyWlLk6GJQsqaUBKTNV-1" vertex="1">
          <mxGeometry x="80" y="40" width="690" height="40" as="geometry" />
        </mxCell>
        <mxCell id="MxyfuENbYduMKJOF5cX6-45" value="&amp;nbsp;Op&amp;nbsp; &amp;nbsp; &amp;nbsp;= one individual operation from H&amp;nbsp; &amp;nbsp; &amp;nbsp; &amp;nbsp; &amp;nbsp; ReqH&amp;nbsp; &amp;nbsp; &amp;nbsp;= R&#39;s timestamp is equal to H&#39;s timestamp&lt;br&gt;&amp;nbsp;&lt;span style=&quot;text-align: center ; font-size: 12px&quot;&gt;&lt;font style=&quot;font-size: 12px&quot;&gt;T&amp;nbsp; &amp;nbsp; &amp;nbsp; &amp;nbsp; &amp;nbsp;= Requesting Operation&amp;nbsp; &amp;nbsp; &amp;nbsp; &amp;nbsp; &amp;nbsp; &amp;nbsp; &amp;nbsp; &amp;nbsp; &amp;nbsp; &amp;nbsp; &amp;nbsp; &amp;nbsp; &amp;nbsp; &amp;nbsp; &amp;nbsp; &amp;nbsp; &amp;nbsp; &amp;nbsp; RgtAllH&amp;nbsp; &amp;nbsp; = R&#39;s timestamp is greter than all H&#39;s timestamps in Ltbl&lt;br&gt;&amp;nbsp;H&amp;nbsp; &amp;nbsp; &amp;nbsp; &amp;nbsp; = Holding Operation&lt;br&gt;&amp;nbsp;Ttbl&amp;nbsp; &amp;nbsp; &amp;nbsp;= Transaction Table&lt;br&gt;&amp;nbsp;Ltbl&amp;nbsp; &amp;nbsp; &amp;nbsp;= Lock Table&lt;br&gt;&lt;/font&gt;&lt;/span&gt;" style="text;html=1;align=left;verticalAlign=top;whiteSpace=wrap;rounded=1;fontSize=14;labelBorderColor=none;spacingTop=2;spacingLeft=0;spacingBottom=0;spacingRight=0;spacing=2;perimeterSpacing=0;strokeWidth=1;labelPadding=-1;fillColor=#f5f5f5;strokeColor=#666666;fontColor=#333333;" parent="WIyWlLk6GJQsqaUBKTNV-1" vertex="1">
          <mxGeometry x="80" y="100" width="690" height="100" as="geometry" />
        </mxCell>
        <mxCell id="b_4wLnTa9Ot5EjCLIlPe-1" value="E" style="verticalLabelPosition=middle;verticalAlign=middle;html=1;shape=offPageConnector;rounded=0;size=0.5;labelPosition=center;align=center;fontSize=20;fontStyle=1" parent="WIyWlLk6GJQsqaUBKTNV-1" vertex="1">
          <mxGeometry x="373" y="245" width="60" height="60" as="geometry" />
        </mxCell>
        <mxCell id="P3ikQWSBlR8Jcj2DVICu-0" value="&amp;nbsp; Holding &lt;br&gt;Items in &lt;br&gt;Ltbl?" style="rhombus;whiteSpace=wrap;html=1;container=0;" parent="WIyWlLk6GJQsqaUBKTNV-1" vertex="1">
          <mxGeometry x="364" y="325" width="78" height="70" as="geometry" />
        </mxCell>
        <mxCell id="P3ikQWSBlR8Jcj2DVICu-1" style="edgeStyle=orthogonalEdgeStyle;rounded=0;orthogonalLoop=1;jettySize=auto;html=1;entryX=0.5;entryY=0;entryDx=0;entryDy=0;exitX=0.5;exitY=1;exitDx=0;exitDy=0;" parent="WIyWlLk6GJQsqaUBKTNV-1" source="b_4wLnTa9Ot5EjCLIlPe-1" target="P3ikQWSBlR8Jcj2DVICu-0" edge="1">
          <mxGeometry x="310" y="285" as="geometry">
            <mxPoint x="403" y="305" as="sourcePoint" />
            <mxPoint x="403" y="435" as="targetPoint" />
            <Array as="points" />
          </mxGeometry>
        </mxCell>
        <mxCell id="P3ikQWSBlR8Jcj2DVICu-2" value="Lock Data &lt;br&gt;Item in Ltbl" style="rounded=1;whiteSpace=wrap;html=1;fontSize=12;glass=0;strokeWidth=1;shadow=0;container=0;" parent="WIyWlLk6GJQsqaUBKTNV-1" vertex="1">
          <mxGeometry x="500" y="337.5" width="120" height="45" as="geometry" />
        </mxCell>
        <mxCell id="P3ikQWSBlR8Jcj2DVICu-3" value="D" style="verticalLabelPosition=middle;verticalAlign=middle;html=1;shape=offPageConnector;rounded=0;size=0.5;labelPosition=center;align=center;fontSize=20;fontStyle=1" parent="WIyWlLk6GJQsqaUBKTNV-1" vertex="1">
          <mxGeometry x="690" y="830" width="60" height="60" as="geometry" />
        </mxCell>
        <mxCell id="P3ikQWSBlR8Jcj2DVICu-4" value="" style="endArrow=classic;html=1;exitX=0.5;exitY=1;exitDx=0;exitDy=0;edgeStyle=orthogonalEdgeStyle;entryX=0.5;entryY=0;entryDx=0;entryDy=0;" parent="WIyWlLk6GJQsqaUBKTNV-1" source="P3ikQWSBlR8Jcj2DVICu-0" edge="1" target="a0qcRUhDXjjUuK-SwN_m-0">
          <mxGeometry x="310" y="285" as="geometry">
            <mxPoint x="413" y="515" as="sourcePoint" />
            <mxPoint x="399" y="420" as="targetPoint" />
            <Array as="points">
              <mxPoint x="403" y="420" />
              <mxPoint x="403" y="420" />
            </Array>
          </mxGeometry>
        </mxCell>
        <mxCell id="P3ikQWSBlR8Jcj2DVICu-5" value="Yes" style="edgeLabel;resizable=0;html=1;align=center;verticalAlign=middle;container=0;" parent="P3ikQWSBlR8Jcj2DVICu-4" connectable="0" vertex="1">
          <mxGeometry relative="1" as="geometry" />
        </mxCell>
        <mxCell id="P3ikQWSBlR8Jcj2DVICu-6" value="" style="endArrow=classic;html=1;exitX=1;exitY=0.5;exitDx=0;exitDy=0;edgeStyle=orthogonalEdgeStyle;entryX=0;entryY=0.5;entryDx=0;entryDy=0;" parent="WIyWlLk6GJQsqaUBKTNV-1" source="P3ikQWSBlR8Jcj2DVICu-0" target="P3ikQWSBlR8Jcj2DVICu-2" edge="1">
          <mxGeometry x="310" y="285" as="geometry">
            <mxPoint x="378" y="480" as="sourcePoint" />
            <mxPoint x="403" y="435" as="targetPoint" />
            <Array as="points">
              <mxPoint x="440" y="360" />
              <mxPoint x="440" y="360" />
            </Array>
          </mxGeometry>
        </mxCell>
        <mxCell id="P3ikQWSBlR8Jcj2DVICu-7" value="No" style="edgeLabel;resizable=0;html=1;align=center;verticalAlign=middle;container=0;" parent="P3ikQWSBlR8Jcj2DVICu-6" connectable="0" vertex="1">
          <mxGeometry relative="1" as="geometry" />
        </mxCell>
        <mxCell id="P3ikQWSBlR8Jcj2DVICu-8" style="edgeStyle=orthogonalEdgeStyle;rounded=0;orthogonalLoop=1;jettySize=auto;html=1;entryX=0;entryY=0.5;entryDx=0;entryDy=0;exitX=1;exitY=0.5;exitDx=0;exitDy=0;" parent="WIyWlLk6GJQsqaUBKTNV-1" source="P3ikQWSBlR8Jcj2DVICu-2" target="ci1VZqPzHlIvv0wYTucQ-0" edge="1">
          <mxGeometry x="320" y="295" as="geometry">
            <mxPoint x="413" y="315" as="sourcePoint" />
            <mxPoint x="413" y="335" as="targetPoint" />
            <Array as="points" />
          </mxGeometry>
        </mxCell>
        <mxCell id="ci1VZqPzHlIvv0wYTucQ-0" value="Add Op to active operations list in Ttbl" style="rounded=1;whiteSpace=wrap;html=1;fontSize=12;glass=0;strokeWidth=1;shadow=0;container=0;" parent="WIyWlLk6GJQsqaUBKTNV-1" vertex="1">
          <mxGeometry x="660" y="335" width="120" height="50" as="geometry" />
        </mxCell>
        <mxCell id="ci1VZqPzHlIvv0wYTucQ-1" style="edgeStyle=orthogonalEdgeStyle;rounded=0;orthogonalLoop=1;jettySize=auto;html=1;entryX=0.5;entryY=0;entryDx=0;entryDy=0;exitX=0.5;exitY=1;exitDx=0;exitDy=0;" parent="WIyWlLk6GJQsqaUBKTNV-1" source="ci1VZqPzHlIvv0wYTucQ-0" target="a0qcRUhDXjjUuK-SwN_m-6" edge="1">
          <mxGeometry x="330" y="305" as="geometry">
            <mxPoint x="620" y="370" as="sourcePoint" />
            <mxPoint x="670" y="370" as="targetPoint" />
            <Array as="points" />
          </mxGeometry>
        </mxCell>
        <mxCell id="a0qcRUhDXjjUuK-SwN_m-3" value="" style="edgeStyle=orthogonalEdgeStyle;rounded=0;orthogonalLoop=1;jettySize=auto;html=1;" edge="1" parent="WIyWlLk6GJQsqaUBKTNV-1" source="a0qcRUhDXjjUuK-SwN_m-0" target="a0qcRUhDXjjUuK-SwN_m-2">
          <mxGeometry relative="1" as="geometry" />
        </mxCell>
        <mxCell id="a0qcRUhDXjjUuK-SwN_m-0" value="Set ReqH = TRUE and RgtH = TRUE" style="rounded=1;whiteSpace=wrap;html=1;fontSize=12;glass=0;strokeWidth=1;shadow=0;container=0;" vertex="1" parent="WIyWlLk6GJQsqaUBKTNV-1">
          <mxGeometry x="343" y="430" width="120" height="30" as="geometry" />
        </mxCell>
        <mxCell id="a0qcRUhDXjjUuK-SwN_m-5" value="" style="edgeStyle=orthogonalEdgeStyle;rounded=0;orthogonalLoop=1;jettySize=auto;html=1;" edge="1" parent="WIyWlLk6GJQsqaUBKTNV-1" source="a0qcRUhDXjjUuK-SwN_m-2" target="a0qcRUhDXjjUuK-SwN_m-4">
          <mxGeometry relative="1" as="geometry" />
        </mxCell>
        <mxCell id="a0qcRUhDXjjUuK-SwN_m-2" value="Get next H from Holding Items in Ltbl" style="rounded=1;whiteSpace=wrap;html=1;fontSize=12;glass=0;strokeWidth=1;shadow=0;container=0;" vertex="1" parent="WIyWlLk6GJQsqaUBKTNV-1">
          <mxGeometry x="343" y="480" width="120" height="40" as="geometry" />
        </mxCell>
        <mxCell id="a0qcRUhDXjjUuK-SwN_m-9" value="Yes" style="edgeStyle=orthogonalEdgeStyle;rounded=0;orthogonalLoop=1;jettySize=auto;html=1;" edge="1" parent="WIyWlLk6GJQsqaUBKTNV-1" source="a0qcRUhDXjjUuK-SwN_m-4" target="a0qcRUhDXjjUuK-SwN_m-11">
          <mxGeometry relative="1" as="geometry" />
        </mxCell>
        <mxCell id="a0qcRUhDXjjUuK-SwN_m-15" value="No" style="edgeStyle=orthogonalEdgeStyle;rounded=0;orthogonalLoop=1;jettySize=auto;html=1;" edge="1" parent="WIyWlLk6GJQsqaUBKTNV-1" source="a0qcRUhDXjjUuK-SwN_m-4" target="a0qcRUhDXjjUuK-SwN_m-13">
          <mxGeometry relative="1" as="geometry" />
        </mxCell>
        <mxCell id="a0qcRUhDXjjUuK-SwN_m-4" value="&amp;nbsp;R time &amp;lt; &lt;br&gt;H time?" style="rhombus;whiteSpace=wrap;html=1;container=0;" vertex="1" parent="WIyWlLk6GJQsqaUBKTNV-1">
          <mxGeometry x="364" y="540" width="78" height="70" as="geometry" />
        </mxCell>
        <mxCell id="a0qcRUhDXjjUuK-SwN_m-7" value="" style="edgeStyle=orthogonalEdgeStyle;rounded=0;orthogonalLoop=1;jettySize=auto;html=1;" edge="1" parent="WIyWlLk6GJQsqaUBKTNV-1" source="a0qcRUhDXjjUuK-SwN_m-6" target="P3ikQWSBlR8Jcj2DVICu-3">
          <mxGeometry relative="1" as="geometry" />
        </mxCell>
        <mxCell id="a0qcRUhDXjjUuK-SwN_m-6" value="Write Info to Log" style="rounded=1;whiteSpace=wrap;html=1;fontSize=12;glass=0;strokeWidth=1;shadow=0;container=0;" vertex="1" parent="WIyWlLk6GJQsqaUBKTNV-1">
          <mxGeometry x="660" y="770" width="120" height="35" as="geometry" />
        </mxCell>
        <mxCell id="a0qcRUhDXjjUuK-SwN_m-11" value="F" style="verticalLabelPosition=middle;verticalAlign=middle;html=1;shape=offPageConnector;rounded=0;size=0.5;labelPosition=center;align=center;fontSize=20;fontStyle=1" vertex="1" parent="WIyWlLk6GJQsqaUBKTNV-1">
          <mxGeometry x="530" y="546" width="60" height="60" as="geometry" />
        </mxCell>
        <mxCell id="a0qcRUhDXjjUuK-SwN_m-18" value="" style="edgeStyle=orthogonalEdgeStyle;rounded=0;orthogonalLoop=1;jettySize=auto;html=1;" edge="1" parent="WIyWlLk6GJQsqaUBKTNV-1" source="a0qcRUhDXjjUuK-SwN_m-13" target="a0qcRUhDXjjUuK-SwN_m-17">
          <mxGeometry relative="1" as="geometry" />
        </mxCell>
        <mxCell id="a0qcRUhDXjjUuK-SwN_m-13" value="&amp;nbsp;R time =&amp;nbsp;&lt;br&gt;H time?" style="rhombus;whiteSpace=wrap;html=1;container=0;" vertex="1" parent="WIyWlLk6GJQsqaUBKTNV-1">
          <mxGeometry x="364" y="642.5" width="78" height="70" as="geometry" />
        </mxCell>
        <mxCell id="a0qcRUhDXjjUuK-SwN_m-20" value="No" style="edgeStyle=orthogonalEdgeStyle;rounded=0;orthogonalLoop=1;jettySize=auto;html=1;exitX=1;exitY=0.5;exitDx=0;exitDy=0;entryX=1;entryY=0.5;entryDx=0;entryDy=0;" edge="1" parent="WIyWlLk6GJQsqaUBKTNV-1" source="a0qcRUhDXjjUuK-SwN_m-14" target="a0qcRUhDXjjUuK-SwN_m-2">
          <mxGeometry relative="1" as="geometry">
            <Array as="points">
              <mxPoint x="650" y="748" />
              <mxPoint x="650" y="500" />
            </Array>
          </mxGeometry>
        </mxCell>
        <mxCell id="a0qcRUhDXjjUuK-SwN_m-14" value="Last H &lt;br&gt;in Ltbl?" style="rhombus;whiteSpace=wrap;html=1;container=0;" vertex="1" parent="WIyWlLk6GJQsqaUBKTNV-1">
          <mxGeometry x="521" y="712.5" width="78" height="70" as="geometry" />
        </mxCell>
        <mxCell id="a0qcRUhDXjjUuK-SwN_m-19" value="" style="edgeStyle=orthogonalEdgeStyle;rounded=0;orthogonalLoop=1;jettySize=auto;html=1;" edge="1" parent="WIyWlLk6GJQsqaUBKTNV-1" source="a0qcRUhDXjjUuK-SwN_m-17" target="a0qcRUhDXjjUuK-SwN_m-14">
          <mxGeometry relative="1" as="geometry" />
        </mxCell>
        <mxCell id="a0qcRUhDXjjUuK-SwN_m-17" value="Set ReqH = FALSE" style="rounded=1;whiteSpace=wrap;html=1;fontSize=12;glass=0;strokeWidth=1;shadow=0;container=0;" vertex="1" parent="WIyWlLk6GJQsqaUBKTNV-1">
          <mxGeometry x="500" y="662.5" width="120" height="30" as="geometry" />
        </mxCell>
      </root>
    </mxGraphModel>
  </diagram>
</mxfile>
